<?xml version="1.0" encoding="utf-8"?>
<!-- Generator: Adobe Illustrator 24.0.3, SVG Export Plug-In . SVG Version: 6.00 Build 0)  -->
<svg version="1.1" id="Layer_1" xmlns="http://www.w3.org/2000/svg" xmlns:xlink="http://www.w3.org/1999/xlink" x="0px" y="0px"
	 width="198.42px" height="198.42px" viewBox="0 0 198.42 198.42" style="enable-background:new 0 0 198.42 198.42;"
	 xml:space="preserve">
<style type="text/css">
	.st0{fill:#1F2A50;}
	.st1{fill:#38B188;}
	.st2{display:none;}
</style>
<symbol  id="Challenge_Fund_for_Youth_Employment_logo_5" viewBox="-123.92 -100.32 247.85 200.63">
	<g>
		<path class="st0" d="M-87.58,80c0.27,0,0.49-0.1,0.69-0.31l1.92-2.08c-1.06-1.32-2.37-2.32-3.92-3.02
			c-1.55-0.7-3.41-1.05-5.59-1.05c-1.94,0-3.69,0.33-5.24,1s-2.88,1.59-3.98,2.77c-1.1,1.18-1.94,2.6-2.53,4.24
			s-0.88,3.43-0.88,5.38c0,1.97,0.33,3.77,0.98,5.41c0.65,1.63,1.57,3.04,2.75,4.23c1.18,1.18,2.6,2.1,4.25,2.76
			s3.47,0.99,5.46,0.99c1.94,0,3.64-0.31,5.1-0.93s2.7-1.45,3.74-2.47l-1.63-2.26c-0.1-0.14-0.22-0.27-0.37-0.38
			s-0.36-0.16-0.62-0.16c-0.28,0-0.56,0.11-0.85,0.33s-0.66,0.45-1.1,0.71c-0.45,0.25-1.01,0.49-1.69,0.71s-1.55,0.33-2.6,0.33
			c-1.23,0-2.36-0.21-3.4-0.64s-1.92-1.04-2.66-1.84c-0.74-0.8-1.32-1.77-1.74-2.91c-0.42-1.14-0.62-2.42-0.62-3.85
			c0-1.47,0.21-2.78,0.62-3.93c0.42-1.15,0.98-2.11,1.69-2.9s1.55-1.39,2.52-1.8c0.97-0.42,2-0.62,3.11-0.62
			c0.66,0,1.26,0.04,1.8,0.11s1.03,0.19,1.48,0.34c0.45,0.16,0.88,0.36,1.29,0.61c0.4,0.25,0.81,0.55,1.2,0.91
			c0.12,0.11,0.25,0.2,0.38,0.26C-87.89,79.97-87.74,80-87.58,80z"/>
		<path class="st0" d="M-59.33,73.83h-4.91v11.44h-12.28V73.83h-4.91v26.19h4.91V88.75h12.28v11.26h4.91
			C-59.34,100.01-59.34,73.83-59.33,73.83z"/>
		<path class="st0" d="M-30.77,73.83h-3.77c-0.42,0-0.77,0.11-1.04,0.32s-0.47,0.47-0.59,0.79l-1.96,5.34h-10.85l-1.96-5.34
			c-0.1-0.28-0.29-0.53-0.57-0.76s-0.63-0.34-1.04-0.34h-3.78l10.29,26.19h4.98L-30.77,73.83z M-47.72,83.72h8.35l-3.19,8.71
			c-0.15,0.39-0.31,0.84-0.48,1.37s-0.35,1.1-0.52,1.71c-0.17-0.62-0.33-1.19-0.5-1.72c-0.16-0.53-0.32-1-0.48-1.39L-47.72,83.72z"
			/>
		<path class="st0" d="M-22.89,77.85h10.49v-4.02h-15.36v26.19h4.87C-22.89,100.02-22.89,77.85-22.89,77.85z"/>
		<path class="st0" d="M-4.22,77.85H6.26v-4.02H-9.09v26.19h4.87C-4.22,100.02-4.22,77.85-4.22,77.85z"/>
		<path class="st0" d="M26.1,100.02v-3.88H14.49v-7.26h9.15v-3.75h-9.15v-7.41H26.1v-3.89H9.58v26.19H26.1z"/>
		<path class="st0" d="M33.5,99.99c0.15-0.02,0.27-0.05,0.39-0.11s0.23-0.13,0.33-0.24c0.11-0.1,0.23-0.24,0.36-0.41l13.74-17.51
			c-0.05,0.42-0.08,0.84-0.1,1.24s-0.03,0.78-0.03,1.13V100h4.29V73.83h-2.5c-0.39,0-0.71,0.06-0.96,0.18s-0.5,0.34-0.74,0.65
			L34.59,92.1c0.04-0.39,0.06-0.77,0.08-1.15c0.02-0.38,0.03-0.73,0.03-1.04V73.83h-4.29v26.19h2.55
			C33.18,100.02,33.36,100.01,33.5,99.99z"/>
		<path class="st0" d="M70.28,77.42c1.1,0,2.06,0.1,2.87,0.3c0.82,0.2,1.59,0.47,2.33,0.82v4.76h-3.28c-0.31,0-0.56,0.09-0.74,0.26
			c-0.18,0.18-0.27,0.39-0.27,0.64v2.75h8.71V76.37c-0.66-0.48-1.36-0.9-2.07-1.26s-1.48-0.65-2.3-0.88
			c-0.81-0.23-1.69-0.4-2.62-0.52s-1.93-0.17-3.01-0.17c-1.91,0-3.66,0.33-5.27,1c-1.61,0.66-2.99,1.59-4.16,2.77
			s-2.09,2.6-2.74,4.24s-0.99,3.43-0.99,5.38c0,1.97,0.32,3.77,0.96,5.42c0.64,1.64,1.55,3.05,2.73,4.24
			c1.18,1.18,2.6,2.1,4.28,2.75s3.56,0.98,5.65,0.98c2.14,0,3.99-0.32,5.55-0.95c1.56-0.63,2.89-1.46,3.97-2.47l-1.41-2.21
			c-0.28-0.45-0.65-0.67-1.1-0.67c-0.29,0-0.59,0.1-0.89,0.29c-0.39,0.23-0.78,0.46-1.19,0.69c-0.4,0.23-0.85,0.43-1.34,0.6
			s-1.04,0.31-1.65,0.42s-1.31,0.16-2.11,0.16c-1.29,0-2.46-0.22-3.5-0.65s-1.93-1.06-2.67-1.87s-1.3-1.78-1.7-2.92
			s-0.6-2.4-0.6-3.8c0-1.51,0.21-2.85,0.63-4.03c0.42-1.18,1.01-2.17,1.77-2.98c0.76-0.81,1.67-1.43,2.72-1.86
			C67.89,77.63,69.03,77.42,70.28,77.42z"/>
		<path class="st0" d="M101.56,100.02v-3.88H89.94v-7.26h9.15v-3.75h-9.15v-7.41h11.61v-3.89H85.04v26.19H101.56z"/>
		<path class="st0" d="M-33.31,56.55v-3.88h-11.61v-7.75h9.8v-3.88h-9.8V30.37h-4.91v26.19L-33.31,56.55L-33.31,56.55z"/>
		<path class="st0" d="M-18.32,34.3c0.94,0,1.78,0.16,2.53,0.47c0.74,0.31,1.37,0.75,1.88,1.32s0.91,1.26,1.18,2.06
			s0.41,1.71,0.41,2.72v15.68h4.87V40.87c0-1.56-0.25-3-0.75-4.32s-1.22-2.46-2.16-3.42c-0.94-0.96-2.08-1.71-3.42-2.25
			s-2.85-0.81-4.53-0.81s-3.19,0.27-4.53,0.81c-1.34,0.54-2.48,1.29-3.41,2.25c-0.94,0.96-1.65,2.1-2.15,3.42s-0.75,2.76-0.75,4.32
			v15.68h4.87V40.89c0-1,0.14-1.91,0.41-2.72s0.66-1.5,1.17-2.07s1.13-1.02,1.87-1.33C-20.11,34.46-19.26,34.3-18.32,34.3z"/>
		<path class="st0" d="M1.12,56.53c0.15-0.02,0.27-0.05,0.39-0.11c0.11-0.05,0.23-0.13,0.33-0.24s0.24-0.24,0.37-0.4l13.74-17.51
			c-0.05,0.42-0.08,0.84-0.1,1.24s-0.03,0.78-0.03,1.13v15.92h4.29V30.37h-2.52c-0.39,0-0.71,0.06-0.96,0.18s-0.5,0.34-0.74,0.65
			L2.21,48.64c0.04-0.39,0.06-0.77,0.08-1.15s0.03-0.73,0.03-1.04V30.37h-4.29v26.19h2.55C0.8,56.55,0.98,56.54,1.12,56.53z"/>
		<path class="st0" d="M49.09,43.46c0-1.92-0.32-3.68-0.96-5.29s-1.54-2.99-2.7-4.15s-2.55-2.06-4.18-2.7s-3.44-0.96-5.42-0.96h-10
			v26.19h10c1.98,0,3.79-0.32,5.42-0.97s3.02-1.55,4.18-2.7s2.06-2.53,2.7-4.14S49.09,45.38,49.09,43.46z M44.11,43.46
			c0,1.44-0.19,2.73-0.58,3.87c-0.39,1.14-0.94,2.11-1.65,2.9c-0.71,0.79-1.58,1.4-2.6,1.82c-1.02,0.42-2.17,0.63-3.45,0.63h-5.09
			V34.24h5.09c1.28,0,2.43,0.21,3.45,0.63c1.02,0.42,1.89,1.03,2.6,1.82s1.26,1.76,1.65,2.9C43.92,40.74,44.11,42.02,44.11,43.46z"
			/>
		<path class="st1" d="M-19.76,13.09V9.22h-11.61V1.47h9.8v-3.89h-9.8v-10.67h-4.91V13.1h16.52V13.09z"/>
		<path class="st1" d="M20.67-2.86v-10.23h-4.87V13.1h7.99c1.79,0,3.32-0.18,4.59-0.55s2.32-0.88,3.13-1.55
			c0.81-0.67,1.41-1.46,1.79-2.38s0.57-1.94,0.57-3.05c0-0.88-0.13-1.71-0.39-2.5s-0.63-1.5-1.12-2.14
			c-0.49-0.64-1.09-1.2-1.81-1.68s-1.54-0.87-2.45-1.16c0.62-0.35,1.15-0.85,1.59-1.5l6.56-9.67h-4.38c-0.42,0-0.78,0.08-1.08,0.25
			c-0.3,0.17-0.55,0.41-0.75,0.72l-5.5,8.38c-0.21,0.31-0.43,0.54-0.68,0.67s-0.61,0.2-1.1,0.2C22.76-2.86,20.67-2.86,20.67-2.86z
			 M20.67,0.63h3.04c0.92,0,1.72,0.11,2.4,0.34s1.24,0.55,1.68,0.95s0.77,0.88,0.99,1.44s0.33,1.17,0.33,1.83
			c0,1.33-0.44,2.35-1.31,3.06c-0.88,0.71-2.21,1.07-4.01,1.07h-3.11V0.63H20.67z"/>
		<path class="st1" d="M-50.46-46.38v-10.18h-4.87v10.18l-9.54,16.01h4.29c0.42,0,0.76-0.1,1.01-0.31s0.46-0.46,0.62-0.78l4.8-8.75
			c0.28-0.52,0.52-1.01,0.72-1.48s0.39-0.92,0.56-1.37c0.16,0.46,0.33,0.92,0.53,1.39c0.2,0.46,0.44,0.95,0.72,1.46l4.76,8.75
			c0.13,0.27,0.33,0.51,0.6,0.74c0.27,0.23,0.6,0.34,1.01,0.34h4.31L-50.46-46.38z"/>
		<path class="st1" d="M-14.7-43.46c0-1.92-0.32-3.7-0.96-5.33c-0.64-1.64-1.54-3.05-2.7-4.25c-1.16-1.2-2.55-2.13-4.18-2.8
			s-3.43-1.01-5.41-1.01s-3.79,0.34-5.42,1.01s-3.04,1.6-4.2,2.8s-2.07,2.61-2.71,4.25s-0.96,3.41-0.96,5.33s0.32,3.7,0.96,5.33
			c0.64,1.64,1.54,3.05,2.71,4.25c1.17,1.19,2.57,2.13,4.2,2.8s3.44,1.01,5.42,1.01s3.78-0.34,5.41-1.01
			c1.63-0.68,3.02-1.61,4.18-2.8s2.06-2.6,2.7-4.24C-15.02-39.76-14.7-41.54-14.7-43.46z M-19.7-43.46c0,1.44-0.19,2.72-0.57,3.87
			c-0.38,1.14-0.93,2.11-1.64,2.91s-1.58,1.41-2.6,1.83c-1.02,0.42-2.17,0.63-3.45,0.63s-2.43-0.21-3.46-0.63
			c-1.03-0.42-1.9-1.03-2.62-1.83s-1.27-1.77-1.66-2.91s-0.58-2.43-0.58-3.87s0.19-2.73,0.58-3.87c0.39-1.14,0.94-2.11,1.66-2.9
			s1.59-1.4,2.62-1.82c1.03-0.42,2.18-0.63,3.46-0.63c1.28,0,2.43,0.21,3.45,0.63c1.02,0.42,1.89,1.03,2.6,1.82
			c0.71,0.79,1.26,1.76,1.64,2.9C-19.89-46.19-19.7-44.9-19.7-43.46z"/>
		<path class="st1" d="M0.04-52.62c0.94,0,1.78,0.16,2.53,0.47s1.37,0.75,1.88,1.32s0.91,1.26,1.18,2.06
			c0.27,0.81,0.41,1.71,0.41,2.72v15.68h4.87v-15.68c0-1.56-0.25-3-0.75-4.32S8.94-52.83,8-53.79c-0.94-0.96-2.08-1.71-3.42-2.25
			s-2.85-0.81-4.53-0.81s-3.19,0.27-4.53,0.81s-2.48,1.29-3.41,2.25s-1.65,2.1-2.15,3.42c-0.5,1.32-0.75,2.76-0.75,4.32v15.68h4.87
			v-15.67c0-1,0.14-1.91,0.41-2.72s0.66-1.5,1.17-2.07s1.13-1.02,1.87-1.33C-1.74-52.47-0.9-52.62,0.04-52.62z"/>
		<path class="st1" d="M34.61-30.37v-4h-7.88v-22.18h-4.87v22.18h-7.91v4H34.61z"/>
		<path class="st1" d="M59.9-56.55h-4.91v11.44H42.72v-11.44h-4.91v26.19h4.91v-11.26H55v11.26h4.91L59.9-56.55L59.9-56.55z"/>
		<path class="st1" d="M-107.4-73.83v-3.88h-11.61v-7.26h9.15v-3.75h-9.15v-7.41h11.61v-3.89h-16.52v26.19
			C-123.92-73.83-107.4-73.83-107.4-73.83z"/>
		<path class="st1" d="M-89.39-90.35c0.17-0.42,0.35-0.84,0.52-1.26c0.17,0.43,0.34,0.86,0.53,1.29c0.18,0.42,0.37,0.83,0.58,1.21
			l7.75,14.51c0.1,0.18,0.2,0.33,0.3,0.43c0.1,0.11,0.22,0.19,0.34,0.24c0.13,0.05,0.27,0.08,0.43,0.09
			c0.16,0.01,0.34,0.02,0.56,0.02h3.68v-26.19h-4.29v16.91c0,0.31,0.01,0.66,0.03,1.03c0.02,0.37,0.04,0.75,0.08,1.14l-7.91-14.85
			c-0.18-0.34-0.42-0.6-0.71-0.79s-0.63-0.28-1.01-0.28h-0.67c-0.39,0-0.72,0.09-1.01,0.28s-0.53,0.45-0.71,0.79l-8.02,14.9
			c0.05-0.4,0.08-0.79,0.1-1.17s0.03-0.73,0.03-1.06v-16.91h-4.29v26.19h3.68c0.22,0,0.4-0.01,0.56-0.02
			c0.16-0.01,0.3-0.04,0.43-0.09c0.13-0.05,0.24-0.13,0.35-0.24s0.21-0.25,0.31-0.43l7.82-14.54
			C-89.75-89.54-89.56-89.94-89.39-90.35z"/>
		<path class="st1" d="M-64.01-90.8v-9.22h-4.87v26.19h8.53c1.75,0,3.27-0.21,4.55-0.62s2.34-0.98,3.17-1.72s1.45-1.62,1.85-2.64
			c0.4-1.03,0.6-2.15,0.6-3.37c0-1.27-0.21-2.43-0.63-3.49c-0.42-1.06-1.06-1.96-1.9-2.72c-0.85-0.76-1.9-1.35-3.17-1.78
			c-1.27-0.42-2.75-0.63-4.46-0.63H-64.01z M-64.01-86.99h3.66c0.89,0,1.67,0.11,2.34,0.33s1.21,0.54,1.65,0.96
			c0.43,0.42,0.76,0.92,0.98,1.52s0.33,1.26,0.33,2c0,0.7-0.11,1.33-0.33,1.9s-0.54,1.05-0.98,1.45c-0.43,0.4-0.98,0.7-1.65,0.91
			c-0.66,0.21-1.44,0.32-2.34,0.32h-3.66V-86.99z"/>
		<path class="st1" d="M-41.8-95.99h10.48v-4.02h-15.36v26.19h4.87v-22.17H-41.8z"/>
		<path class="st1" d="M-3.51-86.92c0-1.92-0.32-3.7-0.96-5.33s-1.54-3.05-2.7-4.25s-2.55-2.13-4.18-2.8s-3.44-1.01-5.42-1.01
			s-3.79,0.34-5.42,1.01c-1.64,0.67-3.04,1.6-4.2,2.8c-1.17,1.2-2.07,2.61-2.71,4.25s-0.96,3.41-0.96,5.33s0.32,3.7,0.96,5.33
			s1.54,3.05,2.71,4.25c1.16,1.19,2.56,2.13,4.2,2.8c1.64,0.67,3.44,1.01,5.42,1.01s3.79-0.34,5.42-1.01
			c1.63-0.68,3.02-1.61,4.18-2.8s2.06-2.6,2.7-4.24S-3.51-85-3.51-86.92z M-8.51-86.92c0,1.44-0.19,2.72-0.57,3.87
			c-0.38,1.14-0.93,2.11-1.64,2.91s-1.58,1.41-2.6,1.83s-2.17,0.63-3.45,0.63c-1.28,0-2.43-0.21-3.46-0.63s-1.9-1.03-2.62-1.83
			c-0.72-0.8-1.27-1.77-1.66-2.91c-0.39-1.14-0.58-2.43-0.58-3.87s0.19-2.73,0.58-3.87s0.94-2.11,1.66-2.9s1.59-1.4,2.62-1.82
			c1.03-0.42,2.18-0.63,3.46-0.63c1.28,0,2.43,0.21,3.45,0.63s1.89,1.03,2.6,1.82s1.26,1.76,1.64,2.9
			C-8.7-89.65-8.51-88.36-8.51-86.92z"/>
		<path class="st1" d="M10.58-89.84v-10.18H5.71v10.18l-9.54,16.01h4.29c0.42,0,0.76-0.1,1.01-0.31s0.46-0.46,0.62-0.78l4.8-8.75
			c0.28-0.52,0.52-1.01,0.72-1.48s0.39-0.92,0.56-1.37c0.16,0.46,0.33,0.92,0.53,1.39c0.2,0.46,0.44,0.95,0.72,1.46l4.76,8.75
			c0.13,0.27,0.33,0.51,0.6,0.74c0.27,0.23,0.6,0.34,1.01,0.34h4.31L10.58-89.84z"/>
		<path class="st1" d="M36.75-90.35c0.17-0.42,0.35-0.84,0.52-1.26c0.17,0.43,0.34,0.86,0.52,1.29c0.18,0.42,0.37,0.83,0.58,1.21
			l7.75,14.51c0.1,0.18,0.2,0.33,0.3,0.43c0.1,0.11,0.22,0.19,0.34,0.24c0.13,0.05,0.27,0.08,0.43,0.09
			c0.16,0.01,0.34,0.02,0.56,0.02h3.68v-26.19h-4.29v16.91c0,0.31,0.01,0.66,0.03,1.03c0.02,0.37,0.05,0.75,0.08,1.14l-7.91-14.85
			c-0.18-0.34-0.42-0.6-0.71-0.79s-0.63-0.28-1.01-0.28h-0.67c-0.39,0-0.72,0.09-1.01,0.28c-0.29,0.19-0.52,0.45-0.71,0.79
			l-8.02,14.9c0.05-0.4,0.08-0.79,0.1-1.17s0.03-0.73,0.03-1.06v-16.91h-4.29v26.19h3.68c0.22,0,0.4-0.01,0.56-0.02
			s0.3-0.04,0.43-0.09c0.13-0.05,0.24-0.13,0.35-0.24s0.21-0.25,0.31-0.43l7.82-14.54C36.38-89.54,36.58-89.94,36.75-90.35z"/>
		<path class="st1" d="M73.67-73.83v-3.88H62.06v-7.26h9.15v-3.75h-9.15v-7.41h11.61v-3.89H57.17v26.19
			C57.17-73.83,73.67-73.83,73.67-73.83z"/>
		<path class="st1" d="M81.08-73.86c0.14-0.02,0.27-0.05,0.39-0.11s0.23-0.13,0.33-0.24c0.11-0.1,0.23-0.24,0.36-0.41l13.75-17.51
			c-0.05,0.42-0.08,0.84-0.1,1.24s-0.03,0.78-0.03,1.13v15.92h4.29v-26.19h-2.52c-0.39,0-0.71,0.06-0.96,0.18s-0.5,0.34-0.74,0.65
			L82.17-81.74c0.04-0.39,0.06-0.77,0.08-1.15c0.02-0.38,0.03-0.73,0.03-1.04v-16.08h-4.29v26.19h2.55
			C80.75-73.83,80.93-73.84,81.08-73.86z"/>
		<path class="st1" d="M123.92-73.83v-4h-7.88v-22.18h-4.87v22.18h-7.91v4H123.92z"/>
	</g>
	<polygon class="st1" points="10.93,-13.16 -2.24,0.01 -15.4,-13.16 	"/>
	<polygon class="st0" points="-15.4,13.18 -2.24,0.01 10.93,13.18 	"/>
</symbol>
<g id="Achtergrond">
</g>
<g id="Iconen">
</g>
<g id="Voorgrond">
</g>
<g id="Text">
</g>
<g id="Vormen">
	<g id="Boost">
	</g>
	<g id="Connect">
	</g>
	<g id="Fair">
	</g>
</g>
<g id="Kleuren">
</g>
<g id="Slide">
	<g id="Name_2_">
	</g>
</g>
<g id="Layer_36">
</g>
<g id="Symbols">
	<g id="Layer_37">
	</g>
</g>
<g id="_x33__values">
	<g id="x">
	</g>
	<g id="Tekst">
		<g id="x_1_">
		</g>
	</g>
</g>
<g id="Beeldmerk_vormen">
</g>
<g id="Onderdelen">
</g>
<g id="Logo_organisations">
</g>
<g id="Vormen_en_achtergrond">
	<g id="Green">
	</g>
	<g id="Dark_blue">
	</g>
	<g id="Yellow">
	</g>
	<g id="Blue">
	</g>
	<g id="Dots">
	</g>
</g>
<g id="Vormen_en_achtergrond_copy">
	<g id="Green_copy">
	</g>
	<g id="Dark_blue_copy">
	</g>
	<g id="Yellow_copy">
	</g>
	<g id="Blue_copy">
	</g>
	<g id="Challenge_fund_form">
	</g>
	<g id="pink">
	</g>
	<g id="Dots_copy">
	</g>
</g>
<g id="Layer_33">
	<g id="geel" class="st2">
	</g>
</g>
<g id="Layer_38">
</g>
<g id="Layer_46">
</g>
<g id="Layer_43">
</g>
<g id="Logo_fair">
</g>
<g id="Layer_47">
</g>
<g id="Logo_x27_s">
</g>
<g id="Layer_44">
	<g>
		<defs>
			<rect id="SVGID_1_" x="13.38" y="28.23" width="173.5" height="140.43"/>
		</defs>
		<clipPath id="SVGID_2_">
			<use xlink:href="#SVGID_1_"  style="overflow:visible;"/>
		</clipPath>
		<g transform="matrix(1 0 0 1 0 -7.629395e-06)" style="clip-path:url(#SVGID_2_);">
			
				<use xlink:href="#Challenge_Fund_for_Youth_Employment_logo_5"  width="247.85" height="200.63" id="XMLID_1_" x="-123.92" y="-100.32" transform="matrix(0.7 0 0 -0.7 100.1284 98.4482)" style="overflow:visible;"/>
		</g>
	</g>
</g>
<g id="Banner">
	<g id="Drieeck">
	</g>
	<g id="Values">
	</g>
</g>
<g id="Layer_49">
</g>
<g id="Layer_45">
</g>
</svg>
