<svg width="32" height="32" viewBox="0 0 32 32" fill="none" xmlns="http://www.w3.org/2000/svg">
<circle cx="16" cy="16" r="15.25" stroke="#FCFCFC" stroke-opacity="0.45" stroke-width="0.5"/>
<path d="M9.98292 11.1968C11.1913 11.1968 12.1709 10.2172 12.1709 9.0088C12.1709 7.8004 11.1913 6.8208 9.98292 6.8208C8.77452 6.8208 7.79492 7.8004 7.79492 9.0088C7.79492 10.2172 8.77452 11.1968 9.98292 11.1968Z" fill="#F2F2F2"/>
<path d="M14.2377 12.8552V24.9942H18.0067V18.9912C18.0067 17.4072 18.3047 15.8732 20.2687 15.8732C22.2057 15.8732 22.2297 17.6842 22.2297 19.0912V24.9952H26.0007V18.3382C26.0007 15.0682 25.2967 12.5552 21.4747 12.5552C19.6397 12.5552 18.4097 13.5622 17.9067 14.5152H17.8557V12.8552H14.2377ZM8.0957 12.8552H11.8707V24.9942H8.0957V12.8552Z" fill="#F2F2F2"/>
</svg>
