<svg width="55" height="36" viewBox="0 0 55 36" fill="none" xmlns="http://www.w3.org/2000/svg">
<g clip-path="url(#clip0_240_108)">
<mask id="mask0_240_108" style="mask-type:luminance" maskUnits="userSpaceOnUse" x="0" y="0" width="55" height="36">
<path d="M55 0H0V36H55V0Z" fill="white"/>
</mask>
<g mask="url(#mask0_240_108)">
<path d="M6.6133 21.0232C6.98011 21.0232 7.31579 20.9814 7.62034 20.8981C7.92484 20.8146 8.24323 20.7085 8.57547 20.5797V23.8206C8.13251 24.0328 7.66186 24.2033 7.16354 24.3322C6.67211 24.4687 6.04227 24.5369 5.27401 24.5369C4.51267 24.5369 3.8413 24.408 3.25992 24.1503C2.67854 23.885 2.22519 23.43 1.89989 22.7856C1.5815 22.1338 1.42232 21.2278 1.42232 20.068V14.7575H0V12.9494L1.42232 10.8604L2.85503 8.84442H6.83251L5.51279 11.4257H8.39898V14.7575H5.51279V19.7724C5.51279 20.1893 5.60969 20.5038 5.80349 20.7161C5.99728 20.9207 6.26722 21.0232 6.6133 21.0232Z" fill="white"/>
<path d="M15.9468 11.1983C17.4348 11.1983 18.5976 11.6039 19.4351 12.415C20.2725 13.2186 20.6912 14.3671 20.6912 15.8605V24.3095L17.0992 24.3321V22.6038H17.0161C16.6839 23.0586 16.3413 23.43 15.9883 23.7182C15.6422 23.9987 15.2443 24.2033 14.7944 24.3321C14.3445 24.4687 13.7943 24.5369 13.1436 24.5369C12.4654 24.5369 11.8563 24.3852 11.3164 24.082C10.7766 23.7788 10.3509 23.3202 10.0395 22.706C9.72802 22.092 9.57227 21.315 9.57227 20.375C9.57227 18.9953 10.0083 17.9718 10.8804 17.3047C11.7524 16.6376 13.0156 16.2623 14.6698 16.1789L16.632 16.1107V15.9288C16.632 15.3526 16.5004 14.9432 16.2375 14.7007C15.9814 14.4581 15.6353 14.3367 15.1992 14.3367C14.7355 14.3367 14.2165 14.4278 13.642 14.6096C13.0745 14.784 12.5034 15.0115 11.9289 15.292V11.7214C12.6528 11.6172 12.2024 11.691 13.0606 11.4939C13.9188 11.2968 14.8809 11.1983 15.9468 11.1983ZM16.6528 18.5556L15.7184 18.601C14.9709 18.6313 14.4448 18.7754 14.1403 19.0331C13.8427 19.2833 13.6939 19.6434 13.6939 20.1134C13.6939 20.5531 13.8012 20.8791 14.0157 21.0914C14.2303 21.2961 14.514 21.3984 14.8671 21.3984C15.3584 21.3984 15.7772 21.2278 16.1232 20.8867C16.4763 20.5455 16.6528 20.1021 16.6528 19.5562V18.5556Z" fill="white"/>
<path d="M27.0457 29.9042C25.3777 29.9042 24.0904 29.5971 23.1836 28.9831C22.2839 28.3766 21.834 27.501 21.834 26.3563C21.834 25.5906 22.052 24.9576 22.4881 24.4573C22.9241 23.9569 23.5782 23.5968 24.4502 23.377C24.0904 23.2103 23.7754 22.9411 23.5055 22.5696C23.2425 22.1982 23.111 21.8305 23.111 21.4666C23.111 21.0649 23.2114 20.7123 23.412 20.4091C23.6128 20.0982 24.0315 19.7306 24.6682 19.3061C24.0591 19.0104 23.5781 18.548 23.2252 17.9188C22.8791 17.2896 22.706 16.5239 22.706 15.6218C22.706 14.6893 22.8998 13.8932 23.2874 13.2338C23.682 12.5742 24.253 12.0701 25.0004 11.7214C25.7549 11.3727 26.6719 11.1983 27.7517 11.1983C27.897 11.1983 28.1184 11.2135 28.4161 11.2437C28.7138 11.2665 29.0149 11.2968 29.3194 11.3348C29.6239 11.365 29.9008 11.3954 30.0668 11.4257H33.2508L34.1262 13.5749L31.8422 13.8588C31.9528 14.0786 32.2142 13.8588 32.7661 14.9395C32.8215 15.1972 32.8493 15.4701 32.8493 15.7581C32.8493 17.1455 32.4027 18.222 31.5099 18.9877C30.624 19.7533 29.2986 20.1362 27.5336 20.1362C27.0976 20.1362 26.7515 20.1058 26.4954 20.0452C26.447 20.1438 26.4089 20.2423 26.3812 20.3409C26.3605 20.4318 26.3501 20.519 26.3501 20.6023C26.3501 20.7768 26.4435 20.917 26.6303 21.0231C26.8242 21.1217 27.0561 21.1899 27.326 21.2278C27.6028 21.2657 27.8659 21.2847 28.115 21.2847H30.0668C31.3888 21.2847 32.3785 21.5879 33.0361 22.1944C33.6936 22.8008 34.0223 23.7144 34.0223 24.9349C34.0223 26.5041 33.4099 27.7246 32.1848 28.5964C30.9666 29.4683 29.2537 29.9042 27.0457 29.9042ZM27.243 27.1295C27.7343 27.1295 28.2293 27.0802 28.7275 26.9817C29.2259 26.8908 29.6446 26.7392 29.9838 26.5269C30.3229 26.3146 30.4924 26.0341 30.4924 25.6855C30.4924 25.4201 30.3921 25.2192 30.1914 25.0827C29.9907 24.9539 29.7312 24.8667 29.4128 24.8212C29.0945 24.7757 28.7587 24.7529 28.4058 24.7529H26.8277C26.537 24.7529 26.2706 24.8023 26.0283 24.9008C25.793 25.0069 25.6061 25.1472 25.4676 25.3214C25.3293 25.4958 25.2601 25.6929 25.2601 25.9128C25.2601 26.2768 25.44 26.5686 25.7999 26.7883C26.1598 27.0158 26.6409 27.1295 27.243 27.1295ZM27.7932 17.6231C28.1809 17.6231 28.4784 17.4601 28.6861 17.1341C28.9006 16.8081 29.0079 16.3192 29.0079 15.6672C29.0079 15.0002 28.9076 14.4998 28.7068 14.1662C28.5061 13.8326 28.2016 13.6659 27.7932 13.6659C27.371 13.6659 27.0561 13.8326 26.8484 14.1662C26.6409 14.4922 26.537 14.9849 26.537 15.6444C26.537 16.304 26.6409 16.8006 26.8484 17.1341C27.0561 17.4601 27.371 17.6231 27.7932 17.6231Z" fill="white"/>
<path d="M20.6682 35.5313C20.7631 35.5313 20.8427 35.5188 20.9071 35.4939C20.9716 35.4691 21.0228 35.4358 21.0607 35.3944C21.0999 35.3529 21.1277 35.3045 21.1441 35.2493C21.1618 35.1939 21.1707 35.1351 21.1707 35.0729C21.1707 35.0079 21.1612 34.9498 21.1423 34.8987C21.1232 34.8462 21.0936 34.8019 21.0531 34.7659C21.0127 34.7285 20.9602 34.7003 20.8957 34.681C20.8325 34.6616 20.7561 34.6518 20.6664 34.6518H20.1526V35.5313H20.6682ZM20.1526 33.3992V34.2661H20.5584C20.7328 34.2661 20.8642 34.2315 20.9527 34.1624C21.0424 34.0932 21.0873 33.9834 21.0873 33.8327C21.0873 33.6763 21.0468 33.5651 20.9659 33.4987C20.885 33.4323 20.7587 33.3992 20.5868 33.3992H20.1526ZM20.5868 32.9678C20.7663 32.9678 20.9198 32.9863 21.0474 33.0237C21.1751 33.0611 21.2793 33.1143 21.3602 33.1834C21.4424 33.2525 21.5024 33.3363 21.5404 33.4344C21.5783 33.5326 21.5973 33.6432 21.5973 33.7663C21.5973 33.8368 21.5877 33.9045 21.5688 33.9696C21.5498 34.0331 21.5202 34.0932 21.4796 34.1499C21.4405 34.2053 21.3899 34.2557 21.328 34.3014C21.2674 34.347 21.1947 34.3857 21.1101 34.4175C21.4866 34.5102 21.675 34.7328 21.675 35.0853C21.675 35.2126 21.6529 35.3301 21.6087 35.4379C21.5644 35.5458 21.4999 35.6391 21.4152 35.718C21.3306 35.7953 21.2263 35.8563 21.1024 35.9005C20.9785 35.9447 20.837 35.9669 20.6778 35.9669H19.6426V32.9678H20.5868Z" fill="white"/>
<path d="M23.7494 34.8054V35.9669H23.2413V34.8054L22.2422 32.9678H22.6915C22.7357 32.9678 22.7706 32.9795 22.7958 33.0031C22.8223 33.0265 22.8444 33.0562 22.8621 33.0921L23.3627 34.094C23.3917 34.1534 23.417 34.2093 23.4385 34.2619C23.4611 34.3145 23.4814 34.367 23.4991 34.4196C23.5156 34.367 23.5345 34.3145 23.556 34.2619C23.5775 34.2093 23.6021 34.1534 23.6299 34.094L24.1286 33.0921C24.1425 33.0617 24.1633 33.0335 24.1912 33.0071C24.219 32.9809 24.2543 32.9678 24.2973 32.9678H24.7485L23.7494 34.8054Z" fill="white"/>
<path d="M29.4748 34.4674C29.4748 34.6871 29.4413 34.8911 29.3743 35.0791C29.3086 35.2658 29.2151 35.4276 29.0937 35.5645C28.9724 35.7013 28.8264 35.8086 28.6558 35.8859C28.4852 35.962 28.2956 36 28.087 36C27.8797 36 27.6908 35.962 27.5201 35.8859C27.3495 35.8086 27.2028 35.7013 27.0802 35.5645C26.959 35.4276 26.8647 35.2658 26.7978 35.0791C26.7307 34.8911 26.6973 34.6871 26.6973 34.4674C26.6973 34.2475 26.7307 34.0442 26.7978 33.8574C26.8647 33.6695 26.959 33.5071 27.0802 33.3702C27.2028 33.2332 27.3495 33.1267 27.5201 33.0508C27.6908 32.9733 27.8797 32.9346 28.087 32.9346C28.226 32.9346 28.3568 32.9524 28.4794 32.9884C28.602 33.0231 28.7145 33.0728 28.8169 33.1378C28.9193 33.2014 29.0109 33.2796 29.0918 33.3721C29.174 33.4634 29.2434 33.5657 29.3004 33.6791C29.3572 33.7926 29.4002 33.9156 29.4293 34.0483C29.4595 34.1811 29.4748 34.3207 29.4748 34.4674ZM28.9534 34.4674C28.9534 34.3028 28.9331 34.1554 28.8927 34.0255C28.8523 33.8942 28.7948 33.7828 28.7202 33.6915C28.6456 33.6003 28.5546 33.5305 28.4472 33.4821C28.341 33.4337 28.221 33.4095 28.087 33.4095C27.953 33.4095 27.8323 33.4337 27.7249 33.4821C27.6187 33.5305 27.5277 33.6003 27.4519 33.6915C27.3773 33.7828 27.3198 33.8942 27.2794 34.0255C27.2389 34.1554 27.2187 34.3028 27.2187 34.4674C27.2187 34.6317 27.2389 34.7798 27.2794 34.9112C27.3198 35.0411 27.3773 35.1517 27.4519 35.243C27.5277 35.3328 27.6187 35.402 27.7249 35.4504C27.8323 35.4988 27.953 35.5229 28.087 35.5229C28.221 35.5229 28.341 35.4988 28.4472 35.4504C28.5546 35.402 28.6456 35.3328 28.7202 35.243C28.7948 35.1517 28.8523 35.0411 28.8927 34.9112C28.9331 34.7798 28.9534 34.6317 28.9534 34.4674Z" fill="white"/>
<path d="M31.5575 35.5168C31.656 35.5168 31.7439 35.4988 31.821 35.4629C31.8993 35.4269 31.9651 35.3764 32.0181 35.3114C32.0713 35.2464 32.1117 35.1677 32.1395 35.075C32.1685 34.9823 32.1831 34.8787 32.1831 34.7639V32.9678H32.6931V34.7639C32.6931 34.9422 32.6666 35.1075 32.6134 35.2596C32.5616 35.4103 32.4865 35.541 32.3878 35.6516C32.2905 35.7608 32.1717 35.8465 32.0314 35.9087C31.8911 35.9696 31.7331 36 31.5575 36C31.3805 36 31.2219 35.9696 31.0816 35.9087C30.9413 35.8465 30.8219 35.7608 30.7233 35.6516C30.6259 35.541 30.5508 35.4103 30.4977 35.2596C30.4459 35.1075 30.4199 34.9422 30.4199 34.7639V32.9678H30.9299V34.7618C30.9299 34.8765 30.9438 34.9803 30.9716 35.0729C31.0006 35.1656 31.0418 35.245 31.0949 35.3114C31.1491 35.3764 31.2149 35.4269 31.2921 35.4629C31.3704 35.4988 31.4589 35.5168 31.5575 35.5168Z" fill="white"/>
<path d="M34.3108 35.9669H33.7988V32.9678H34.3108V35.9669Z" fill="white"/>
<path d="M38.7899 35.2596C38.8177 35.2596 38.8423 35.2713 38.8639 35.2948L39.0649 35.5334C38.9536 35.6841 38.8165 35.7996 38.6535 35.8797C38.4916 35.9599 38.297 36 38.0695 36C37.866 36 37.6827 35.962 37.5197 35.8859C37.3579 35.8099 37.2195 35.7042 37.1045 35.5686C36.9894 35.4331 36.901 35.2713 36.839 35.0833C36.7784 34.8952 36.748 34.6899 36.748 34.4674C36.748 34.2419 36.7809 34.0358 36.8466 33.8492C36.9123 33.6611 37.0047 33.4993 37.1234 33.3639C37.2435 33.2284 37.3864 33.1232 37.552 33.0486C37.7175 32.9725 37.9008 32.9346 38.1017 32.9346C38.3015 32.9346 38.4784 32.9706 38.6326 33.0424C38.788 33.1143 38.9201 33.2083 39.0289 33.3244L38.8582 33.5838C38.848 33.6003 38.8348 33.6148 38.8183 33.6272C38.8032 33.6397 38.7818 33.6459 38.7539 33.6459C38.735 33.6459 38.7154 33.6405 38.6951 33.6294C38.675 33.6169 38.6527 33.6024 38.6289 33.5858C38.6048 33.5678 38.5769 33.5485 38.5454 33.5277C38.5137 33.5071 38.4772 33.4884 38.4354 33.4716C38.3937 33.4537 38.345 33.4393 38.2894 33.4282C38.235 33.4157 38.1719 33.4095 38.0998 33.4095C37.9773 33.4095 37.8648 33.4337 37.7624 33.4821C37.6613 33.5291 37.5741 33.5982 37.5007 33.6895C37.4274 33.7793 37.3706 33.89 37.3301 34.0214C37.2896 34.1513 37.2695 34.2999 37.2695 34.4674C37.2695 34.636 37.291 34.786 37.3339 34.9174C37.3781 35.0487 37.4375 35.1593 37.5121 35.2492C37.5867 35.339 37.6745 35.4082 37.7756 35.4567C37.8767 35.5036 37.9855 35.5271 38.1017 35.5271C38.1712 35.5271 38.2338 35.5229 38.2894 35.5147C38.3463 35.5063 38.3981 35.4933 38.4449 35.4753C38.4929 35.4573 38.5377 35.4345 38.5795 35.4068C38.6225 35.3778 38.6648 35.3425 38.7065 35.3011C38.7192 35.2886 38.7325 35.2789 38.7464 35.2721C38.7603 35.2637 38.7748 35.2596 38.7899 35.2596Z" fill="white"/>
<path d="M41.3937 34.8344L41.0601 33.8368C41.0435 33.7925 41.0265 33.74 41.0088 33.6791C40.9912 33.6183 40.9734 33.5526 40.9558 33.4821C40.9392 33.5526 40.9223 33.619 40.9045 33.6812C40.8869 33.7421 40.8698 33.7953 40.8534 33.8409L40.5216 34.8344H41.3937ZM42.2942 35.9669H41.8998C41.8556 35.9669 41.8196 35.955 41.7918 35.9316C41.764 35.9067 41.7432 35.8763 41.7293 35.8403L41.5246 35.2284H40.3889L40.184 35.8403C40.174 35.8721 40.1545 35.9011 40.1253 35.9274C40.0962 35.9537 40.0602 35.9669 40.0172 35.9669H39.6191L40.6978 32.9678H41.2173L42.2942 35.9669Z" fill="white"/>
<path d="M44.0004 34.4756C44.094 34.4756 44.1755 34.4631 44.245 34.4382C44.3146 34.412 44.3721 34.3752 44.4175 34.3283C44.4643 34.2798 44.4991 34.2218 44.5218 34.1541C44.5446 34.0849 44.556 34.0082 44.556 33.9238C44.556 33.8436 44.5446 33.7711 44.5218 33.7061C44.4991 33.6411 44.4649 33.5858 44.4195 33.5402C44.3739 33.4946 44.3164 33.4599 44.2469 33.4364C44.1773 33.4116 44.0953 33.3992 44.0004 33.3992H43.6194V34.4756H44.0004ZM44.0004 32.9678C44.1837 32.9678 44.3423 32.9912 44.4763 33.0383C44.6103 33.0852 44.7209 33.1509 44.8081 33.2352C44.8953 33.3195 44.9598 33.4206 45.0014 33.538C45.0445 33.6557 45.0659 33.7842 45.0659 33.9238C45.0659 34.0691 45.0438 34.2025 44.9996 34.3242C44.9553 34.4444 44.889 34.5481 44.8005 34.6352C44.712 34.7224 44.6008 34.7901 44.4668 34.8385C44.3342 34.8869 44.1786 34.9112 44.0004 34.9112H43.6194V35.9669H43.1094V32.9678H44.0004Z" fill="white"/>
<path d="M46.5001 35.9669H45.9883V32.9678H46.5001V35.9669Z" fill="white"/>
<path d="M49.5577 33.4261H48.7312V35.9669H48.2211V33.4261H47.3945V32.9678H49.5577V33.4261Z" fill="white"/>
<path d="M51.63 34.8344L51.2964 33.8368C51.2798 33.7925 51.2629 33.74 51.2452 33.6791C51.2275 33.6183 51.2097 33.5526 51.1921 33.4821C51.1757 33.5526 51.1586 33.619 51.1408 33.6812C51.1232 33.7421 51.1061 33.7953 51.0897 33.8409L50.7579 34.8344H51.63ZM52.5306 35.9669H52.1362C52.092 35.9669 52.056 35.955 52.0282 35.9316C52.0003 35.9067 51.9795 35.8763 51.9656 35.8403L51.7609 35.2284H50.6252L50.4205 35.8403C50.4104 35.8721 50.3908 35.9011 50.3617 35.9274C50.3326 35.9537 50.2966 35.9669 50.2536 35.9669H49.8555L50.9343 32.9678H51.4537L52.5306 35.9669Z" fill="white"/>
<path d="M54.9515 35.5063V35.9669H53.3457V32.9678H53.8557V35.5063H54.9515Z" fill="white"/>
<path d="M51.8588 18.4165L34.1738 0L53.4143 1.43855L51.8588 18.4165Z" fill="white"/>
<path d="M48.5014 29.7682L42.3145 8.48177L54.2734 11.8414L48.5014 29.7682Z" fill="white"/>
<path d="M54.6141 22.9082L52.6562 25.1486L52.9913 21.2109L54.6141 22.9082Z" fill="white" stroke="white" stroke-width="0.602941"/>
</g>
</g>
<defs>
<clipPath id="clip0_240_108">
<rect width="55" height="36" fill="white"/>
</clipPath>
</defs>
</svg>
